PathFileType	4	(X/Y/Z)	C:\Git\research_data\torsion_deformities_healthy_kinematics\simulations\TD07\pre\static_01\markers_HJC.trc
DataRate	CameraRate	NumFrames	NumMarkers	Units	OrigDataRate	OrigDataStartFrame	OrigNumFrames
200	200	4	40	mm	200	46	120
Frame#	Time	C7			T10			CLAV			STRN			RBAK			LASI			RASI			SACR			RT1			RT2			RT3			RKNE			RS1			RS2			RS3			RANK			RHEE			RTOE			RM5D			LT1			LT2			LT3			LKNE			LS1			LS2			LS3			LANK			LHEE			LTOE			LM5D			RHJC			LHJC			LKNM			LANM			RKNM			RANM			LKJC			LAJC			RKJC			RAJC		
		X1	Y1	Z1	X2	Y2	Z2	X3	Y3	Z3	X4	Y4	Z4	X5	Y5	Z5	X6	Y6	Z6	X7	Y7	Z7	X8	Y8	Z8	X9	Y9	Z9	X10	Y10	Z10	X11	Y11	Z11	X12	Y12	Z12	X13	Y13	Z13	X14	Y14	Z14	X15	Y15	Z15	X16	Y16	Z16	X17	Y17	Z17	X18	Y18	Z18	X19	Y19	Z19	X20	Y20	Z20	X21	Y21	Z21	X22	Y22	Z22	X23	Y23	Z23	X24	Y24	Z24	X25	Y25	Z25	X26	Y26	Z26	X27	Y27	Z27	X28	Y28	Z28	X29	Y29	Z29	X30	Y30	Z30	X31	Y31	Z31	X32	Y32	Z32	X33	Y33	Z33	X34	Y34	Z34	X35	Y35	Z35	X36	Y36	Z36	X37	Y37	Z37	X38	Y38	Z38	X39	Y39	Z39	X40	Y40	Z40	

46	0.225000	654.171631	1227.715942	348.865662	662.563965	1004.730042	345.132599	668.822632	1200.196777	222.421661	669.853027	1067.890381	154.194305	756.228271	1095.604004	360.413483	547.153259	797.091919	207.312332	803.032288	833.232971	199.382416	672.511597	853.804993	357.245056	865.189087	607.257507	310.255157	862.976990	546.863403	337.590057	875.493042	545.704346	289.089020	881.569641	442.288513	299.721588	915.671021	350.384399	351.930298	922.149231	287.290588	377.115997	937.828308	293.001709	326.898193	962.288879	87.309021	321.975586	922.972778	45.921219	358.837067	978.929199	47.625793	167.472977	1003.103088	34.414871	257.797150	482.374695	615.487000	255.188583	473.003418	559.450012	290.743439	482.244202	550.927246	240.245712	452.842407	421.901276	304.874603	400.868286	310.157104	318.872467	386.073608	255.415909	353.542206	381.321777	248.737137	302.828674	348.776215	71.222237	335.057648	387.145538	43.302849	357.655640	297.895966	42.697758	178.698868	286.224976	29.742628	273.347656	779.191454	755.008202	268.550045	595.861585	729.114191	274.231599	542.252563	383.125153	261.635010	407.284515	67.506371	271.902191	792.756958	404.800079	268.227081	888.382690	75.000381	278.330780	497.547485	402.513214	283.254807	378.030365	69.364304	303.479919	837.163300	423.544296	283.974335	925.335785	81.154701	300.153183	
47	0.230000	654.148499	1227.748169	348.837738	662.591003	1004.738159	345.131104	668.793823	1200.206299	222.390121	669.822632	1067.902100	154.160873	756.238159	1095.637329	360.381042	547.141479	797.103760	207.355606	803.019836	833.229370	199.385193	672.522949	853.809814	357.266357	865.174377	607.262695	310.256317	862.947327	546.870239	337.616089	875.488708	545.707031	289.090149	881.563049	442.292816	299.730011	915.675842	350.384247	351.942596	922.154907	287.290039	377.114227	937.826477	293.007507	326.899902	962.290283	87.310883	321.974457	922.974121	45.921082	358.838654	978.927734	47.626015	167.473694	1003.102844	34.415356	257.797577	482.362427	615.494995	255.226227	472.993225	559.453979	290.776825	482.229858	550.935974	240.279388	452.834961	421.903351	304.889587	400.862946	310.157013	318.882416	386.073303	255.418457	353.545380	381.318390	248.737747	302.835968	348.780426	71.221321	335.057892	387.148132	43.301846	357.653870	297.894684	42.697021	178.699326	286.225708	29.741877	273.348175	779.185441	755.007042	268.556741	595.855965	729.124082	274.267313	542.244324	383.132263	261.649078	407.284973	67.507660	271.902191	792.748596	404.799072	268.241577	888.383362	75.000801	278.333893	497.539642	402.517807	283.269333	378.032700	69.364491	303.480042	837.155823	423.545944	283.985794	925.336823	81.155842	300.154175	
48	0.235000	654.126038	1227.780029	348.809845	662.618103	1004.746033	345.129089	668.765259	1200.215820	222.358170	669.791443	1067.913818	154.127136	756.247986	1095.669556	360.347870	547.129395	797.115479	207.397705	803.007019	833.225830	199.385681	672.534668	853.814392	357.285919	865.159668	607.267944	310.255524	862.917358	546.877136	337.641418	875.484192	545.709717	289.089478	881.556458	442.297180	299.737061	915.680420	350.384369	351.953461	922.160339	287.290070	377.111664	937.824646	293.013275	326.900818	962.291565	87.312775	321.973328	922.975403	45.920952	358.840149	978.926208	47.626122	167.474411	1003.102783	34.415840	257.797699	482.350098	615.502930	255.262833	472.983124	559.458008	290.809204	482.214966	550.944885	240.311874	452.827545	421.905426	304.903809	400.857666	310.156982	318.891846	386.073059	255.420975	353.548279	381.315063	248.738327	302.842834	348.784698	71.220459	335.058105	387.150696	43.300938	357.652100	297.893402	42.696297	178.699738	286.226471	29.741179	273.348633	779.179428	755.005832	268.561139	595.850388	729.133792	274.301526	542.236084	383.139252	261.662231	407.285461	67.508881	271.902069	792.740173	404.798035	268.254944	888.383911	75.001160	278.336914	497.531815	402.522339	283.283020	378.035080	69.364670	303.480087	837.148315	423.547607	283.996002	925.337738	81.156967	300.155121	
49	0.240000	654.104248	1227.811279	348.781952	662.645203	1004.753845	345.126587	668.736816	1200.225220	222.325836	669.759521	1067.925659	154.093079	756.257690	1095.700684	360.314026	547.116882	797.127136	207.438629	802.993774	833.222290	199.383911	672.546875	853.818848	357.303772	865.144958	607.273315	310.252777	862.887146	546.884033	337.665985	875.479553	545.712402	289.087036	881.549805	442.301544	299.742706	915.684753	350.384674	351.962830	922.165466	287.290680	377.108307	937.822754	293.019012	326.900909	962.292664	87.314682	321.972198	922.976624	45.920826	358.841553	978.924683	47.626114	167.475128	1003.102844	34.416332	257.797516	482.337708	615.510803	255.298370	472.973114	559.462036	290.840576	482.199463	550.953918	240.343170	452.820251	421.907501	304.917267	400.852509	310.156952	318.900757	386.072845	255.423447	353.550873	381.311798	248.738907	302.849365	348.789062	71.219650	335.058228	387.153259	43.300129	357.650360	297.892120	42.695583	178.700119	286.227234	29.740536	273.349060	779.173296	755.004545	268.563318	595.844697	729.143382	274.334297	542.227844	383.146118	261.674500	407.285980	67.510025	271.901886	792.731750	404.796967	268.267212	888.384277	75.001442	278.339844	497.524048	402.526810	283.295883	378.037521	69.364838	303.480057	837.140778	423.549255	284.004959	925.338470	81.158062	300.156021	
